<svg width="50" height="50" viewBox="0 0 50 50" fill="none" xmlns="http://www.w3.org/2000/svg">
<g clip-path="url(#clip0_2175_7656)">
<path d="M25 50C38.8071 50 50 38.8071 50 25C50 11.1929 38.8071 0 25 0C11.1929 0 0 11.1929 0 25C0 38.8071 11.1929 50 25 50Z" fill="#1F3BB3"/>
<path d="M17.9766 19.7812H21.1562L17.4609 31H15.0625L13.0938 25L11.1797 31H8.75781L5.04688 19.7812H8.28125L10.0234 25.7812L11.9297 19.7812H14.3281L16.25 25.7969L17.9766 19.7812ZM23.1719 19.0469C23.6354 19.0469 24.0312 19.2135 24.3594 19.5469C24.6875 19.875 24.8516 20.2682 24.8516 20.7266C24.8516 21.1849 24.6875 21.5807 24.3594 21.9141C24.0312 22.2422 23.6354 22.4062 23.1719 22.4062C22.7135 22.4062 22.3177 22.2422 21.9844 21.9141C21.6562 21.5807 21.4922 21.1849 21.4922 20.7266C21.4922 20.2682 21.6562 19.875 21.9844 19.5469C22.3177 19.2135 22.7135 19.0469 23.1719 19.0469ZM21.7344 23.0938H24.6094V31H21.7344V23.0938ZM36.2734 27.9297C36.0286 28.8724 35.4375 29.6458 34.5 30.25C33.5677 30.8542 32.5 31.1562 31.2969 31.1562C30.5052 31.1562 29.7578 31.0078 29.0547 30.7109C28.3516 30.4089 27.7474 30.0026 27.2422 29.4922C26.7422 28.9766 26.3464 28.3646 26.0547 27.6562C25.763 26.9479 25.6172 26.2005 25.6172 25.4141C25.6172 24.3516 25.8646 23.3802 26.3594 22.5C26.8542 21.6146 27.5365 20.9167 28.4062 20.4062C29.276 19.8958 30.2396 19.6406 31.2969 19.6406C32.4792 19.6406 33.526 19.9297 34.4375 20.5078C35.349 21.0807 35.9245 21.8151 36.1641 22.7109L33.4453 24.0078C33.2891 23.5755 33.0208 23.2344 32.6406 22.9844C32.2656 22.7292 31.8177 22.6016 31.2969 22.6016C30.5417 22.6016 29.9271 22.8672 29.4531 23.3984C28.9792 23.9245 28.7422 24.5964 28.7422 25.4141C28.7422 26.2214 28.9792 26.888 29.4531 27.4141C29.9271 27.9401 30.5417 28.2031 31.2969 28.2031C31.8646 28.2031 32.3411 28.0651 32.7266 27.7891C33.112 27.5078 33.3672 27.1276 33.4922 26.6484L36.2734 27.9297ZM42.4062 23.0938H45.2891V31H42.4062V30.2344C42.2396 30.5156 41.9661 30.7396 41.5859 30.9062C41.2057 31.0729 40.7865 31.1562 40.3281 31.1562C39.349 31.1562 38.513 30.7552 37.8203 29.9531C37.1328 29.1458 36.7891 28.1771 36.7891 27.0469C36.7891 25.9167 37.1328 24.9505 37.8203 24.1484C38.513 23.3411 39.349 22.9375 40.3281 22.9375C40.776 22.9375 41.1901 23.0234 41.5703 23.1953C41.9505 23.362 42.2292 23.5859 42.4062 23.8672V23.0938ZM40.9844 28.4219C41.2969 28.4219 41.5755 28.3542 41.8203 28.2188C42.0651 28.0833 42.2604 27.9062 42.4062 27.6875V26.4219C42.2604 26.1979 42.0651 26.0182 41.8203 25.8828C41.5755 25.7422 41.2969 25.6719 40.9844 25.6719C40.599 25.6719 40.2734 25.8047 40.0078 26.0703C39.7422 26.3307 39.6094 26.6562 39.6094 27.0469C39.6094 27.4375 39.7422 27.7656 40.0078 28.0312C40.2734 28.2917 40.599 28.4219 40.9844 28.4219Z" fill="white"/>
</g>
<defs>
<clipPath id="clip0_2175_7656">
<rect width="50" height="50" fill="white"/>
</clipPath>
</defs>
</svg>
