<svg width="161" height="16" viewBox="0 0 161 16" fill="none" xmlns="http://www.w3.org/2000/svg">
<path d="M16.2207 0.976562H20.1953L15.5762 15H12.5781L10.1172 7.5L7.72461 15H4.69727L0.0585938 0.976562H4.10156L6.2793 8.47656L8.66211 0.976562H11.6602L14.0625 8.49609L16.2207 0.976562ZM21.0156 0.996094H24.8145V15H21.0156V0.996094ZM39.5898 15H34.668L30.127 8.60352V15H26.3281V0.996094H30.127V6.60156L34.4043 0.996094H39.1699L34.0625 7.55859L39.5898 15ZM45.8887 15.1758C45.0879 15.1758 44.3359 15.0326 43.6328 14.7461C42.9297 14.4596 42.3275 14.0658 41.8262 13.5645C41.3249 13.0632 40.931 12.4609 40.6445 11.7578C40.3581 11.0482 40.2148 10.2897 40.2148 9.48242V0.996094H44.0137V9.48242C44.0137 10.0553 44.1927 10.5339 44.5508 10.918C44.9089 11.2956 45.3548 11.4844 45.8887 11.4844C46.429 11.4844 46.8783 11.2956 47.2363 10.918C47.5944 10.5339 47.7734 10.0553 47.7734 9.48242V0.996094H51.5723V9.48242C51.5723 10.5632 51.3249 11.5397 50.8301 12.4121C50.3418 13.278 49.6647 13.9551 48.7988 14.4434C47.9329 14.9316 46.9629 15.1758 45.8887 15.1758ZM58.1348 0.800781C59.0527 0.800781 60.0326 1.02539 61.0742 1.47461C62.1159 1.92383 62.9232 2.48047 63.4961 3.14453L61.3379 6.14258C60.7585 5.62174 60.153 5.21484 59.5215 4.92188C58.89 4.62891 58.3203 4.48242 57.8125 4.48242C57.1615 4.48242 56.8359 4.65495 56.8359 5C56.8359 5.16927 56.9108 5.31576 57.0605 5.43945C57.2168 5.56315 57.4251 5.67057 57.6855 5.76172C57.946 5.85286 58.2454 5.94076 58.584 6.02539C58.9225 6.11003 59.2773 6.21094 59.6484 6.32812C60.0195 6.4388 60.3906 6.56576 60.7617 6.70898C61.1328 6.85221 61.4876 7.04102 61.8262 7.27539C62.1647 7.50326 62.4642 7.76693 62.7246 8.06641C62.985 8.35938 63.1901 8.73047 63.3398 9.17969C63.4961 9.6224 63.5742 10.1172 63.5742 10.6641C63.5742 11.2305 63.4538 11.7806 63.2129 12.3145C62.9785 12.8418 62.64 13.3236 62.1973 13.7598C61.7611 14.1895 61.1947 14.5378 60.498 14.8047C59.8014 15.0651 59.0332 15.1953 58.1934 15.1953C57.0801 15.1953 55.9212 14.9089 54.7168 14.3359C53.5189 13.7565 52.6302 13.0436 52.0508 12.1973L54.4922 9.46289C55.0651 10.127 55.638 10.638 56.2109 10.9961C56.7904 11.3477 57.4512 11.5234 58.1934 11.5234C58.6491 11.5234 59.0104 11.4551 59.2773 11.3184C59.5443 11.1751 59.6777 10.9701 59.6777 10.7031C59.6777 10.5273 59.5996 10.3776 59.4434 10.2539C59.2936 10.1237 59.0885 10.0163 58.8281 9.93164C58.5742 9.84049 58.2812 9.75586 57.9492 9.67773C57.6172 9.59961 57.2656 9.51172 56.8945 9.41406C56.5299 9.3099 56.1621 9.19271 55.791 9.0625C55.4264 8.93229 55.0781 8.75977 54.7461 8.54492C54.4141 8.33008 54.1178 8.08268 53.8574 7.80273C53.6035 7.52279 53.3984 7.17122 53.2422 6.74805C53.0924 6.31836 53.0176 5.83659 53.0176 5.30273C53.0176 4.02669 53.4961 2.95898 54.4531 2.09961C55.4167 1.23372 56.6439 0.800781 58.1348 0.800781ZM73.5938 15L72.9492 13.2812H68.291L67.6562 15H63.6328L69.1504 0.996094H72.1582L77.7148 15H73.5938ZM69.5117 10.0391H71.7773L70.6543 7.02148L69.5117 10.0391ZM78.5156 15V0.996094H83.1543L86.6309 9.42383L90.3906 0.996094H94.2773V15H90.4785V8.33984L87.6953 15H84.9707L82.3145 8.33984V15H78.5156ZM105.039 15L104.395 13.2812H99.7363L99.1016 15H95.0781L100.596 0.996094H103.604L109.16 15H105.039ZM100.957 10.0391H103.223L102.1 7.02148L100.957 10.0391Z" fill="black"/>
<path d="M126.67 11.1621C126.364 12.3405 125.625 13.3073 124.453 14.0625C123.288 14.8177 121.953 15.1953 120.449 15.1953C119.46 15.1953 118.525 15.0098 117.646 14.6387C116.768 14.2611 116.012 13.7533 115.381 13.1152C114.756 12.4707 114.261 11.7057 113.896 10.8203C113.532 9.9349 113.35 9.00065 113.35 8.01758C113.35 6.68945 113.659 5.47526 114.277 4.375C114.896 3.26823 115.749 2.39583 116.836 1.75781C117.923 1.11979 119.128 0.800781 120.449 0.800781C121.927 0.800781 123.236 1.16211 124.375 1.88477C125.514 2.60091 126.234 3.51888 126.533 4.63867L123.135 6.25977C122.939 5.7194 122.604 5.29297 122.129 4.98047C121.66 4.66146 121.1 4.50195 120.449 4.50195C119.505 4.50195 118.737 4.83398 118.145 5.49805C117.552 6.1556 117.256 6.99544 117.256 8.01758C117.256 9.02669 117.552 9.86003 118.145 10.5176C118.737 11.1751 119.505 11.5039 120.449 11.5039C121.159 11.5039 121.755 11.3314 122.236 10.9863C122.718 10.6348 123.037 10.1595 123.193 9.56055L126.67 11.1621ZM136.445 15L135.801 13.2812H131.143L130.508 15H126.484L132.002 0.996094H135.01L140.566 15H136.445ZM132.363 10.0391H134.629L133.506 7.02148L132.363 10.0391ZM141.367 0.996094H150.361V4.63867H145.166V6.66016H149.805V10.3027H145.166V15H141.367V0.996094ZM151.562 0.996094H160.557V4.63867H155.361V6.12305H160V9.75586H155.361V11.3574H160.557V15H151.562V0.996094Z" fill="#1F3BB3"/>

</svg>
